# xmcd
#
# Track frame offsets:
#	150
#	16439
#	30924
#	46410
#	71369
#	87041
#	105787
#	124388
#	136935
#	151486
#	165746
#	179118
#	191996
#	212601
#	227621
#	247940
#
# Disc length: 3536 seconds
#
# Revision: 1
# Processed by: cddbd v1.5.2PL0 Copyright (c) Steve Scherf et al.
# Submitted via: audiograbber 1.83.01
#
DISCID=ce0dce10
DTITLE=Miranda Lambert - Platinum
DYEAR=2014
DGENRE=Country
TTITLE0=Girls
TTITLE1=Platinum
TTITLE2=Little Red Wagon
TTITLE3=Platinum - 04 - Smokin' And Drinkin' (feat. Little Big Town)'
TTITLE4=Priscilla
TTITLE5=Automatic
TTITLE6=Bathroom Sink
TTITLE7=Old Sh!t
TTITLE8=Platinum - 09 - All That's Left (feat. The Time Jumpers)
TTITLE9=Gravity Is a Bitch
TTITLE10=Babies Makin' Babies
TTITLE11=Somethin' Bad
TTITLE12=Holding on to You
TTITLE13=Two Rings Shy
TTITLE14=Hard Staying Sober
TTITLE15=Another Sunday in the South
EXTD=
EXTT0=
EXTT1=
EXTT2=
EXTT3=
EXTT4=
EXTT5=
EXTT6=
EXTT7=
EXTT8=
EXTT9=
EXTT10=
EXTT11=
EXTT12=
EXTT13=
EXTT14=
EXTT15=
PLAYORDER=
